<svg width="150" height="46" viewBox="0 0 150 46" fill="none" xmlns="http://www.w3.org/2000/svg">
<rect x="0.791304" y="0.631148" width="148.279" height="45" rx="6.27049" stroke="url(#paint0_linear_3422_9395)" stroke-width="0.737705"/>
<path fill-rule="evenodd" clip-rule="evenodd" d="M44.7151 16.8282H47.3347C47.9094 16.8421 48.4808 16.7361 49.0122 16.5169C49.4616 16.3247 49.8613 16.0325 50.1808 15.6627C50.4963 15.2877 50.7291 14.8503 50.8639 14.3791C51.0148 13.859 51.0893 13.3197 51.0852 12.7782C51.0861 12.2753 51.0272 11.7741 50.9096 11.2851C50.8002 10.8179 50.5944 10.3787 50.3054 9.99562C50.0027 9.60539 49.6095 9.29473 49.1598 9.09045C48.5915 8.84639 47.9764 8.73053 47.3583 8.75111H44.7159V16.8275L44.7151 16.8282ZM45.2122 16.3982V9.18119H47.2778C47.4996 9.18263 47.7213 9.19592 47.9417 9.22103C48.1929 9.24827 48.4403 9.30319 48.6794 9.3848C48.9314 9.47153 49.1708 9.59135 49.3913 9.74111C49.6343 9.90999 49.8414 10.1254 50.0006 10.3748C50.1943 10.6805 50.3392 11.0145 50.43 11.3648C50.5476 11.8267 50.6027 12.3024 50.5938 12.779C50.612 13.3747 50.5143 13.9682 50.3061 14.5266C50.1423 14.9474 49.8856 15.3256 49.5551 15.6332C49.2578 15.9027 48.9054 16.1041 48.5223 16.2233C48.1551 16.3385 47.7726 16.3977 47.3877 16.3989H45.2196L45.2122 16.3982ZM51.9364 15.0976C52.0444 15.4503 52.2198 15.7788 52.4528 16.0647C52.6803 16.3413 52.9653 16.565 53.2879 16.7205C54.0138 17.0451 54.8437 17.0451 55.5696 16.7205C55.8921 16.5649 56.177 16.3411 56.4047 16.0647C56.6372 15.7784 56.8125 15.4501 56.9211 15.0976C57.0394 14.7167 57.0983 14.3198 57.0959 13.9209C57.0986 13.524 57.0396 13.1291 56.9211 12.7502C56.8108 12.3985 56.6356 12.0704 56.4047 11.7831C56.1786 11.503 55.8934 11.2763 55.5696 11.1191C54.8436 10.7949 54.0139 10.7949 53.2879 11.1191C52.964 11.2761 52.6788 11.5029 52.4528 11.7831C52.2213 12.0701 52.0461 12.3982 51.9364 12.7502C51.8179 13.1291 51.7589 13.524 51.7616 13.9209C51.7592 14.3198 51.8181 14.7167 51.9364 15.0976ZM52.3377 12.9199C52.4288 12.612 52.5739 12.3227 52.7663 12.0656C52.9529 11.8183 53.192 11.6155 53.4664 11.4718C54.072 11.1784 54.7787 11.1784 55.3844 11.4718C55.6587 11.6157 55.8977 11.8185 56.0845 12.0656C56.2768 12.3227 56.422 12.612 56.5131 12.9199C56.7088 13.5729 56.7088 14.269 56.5131 14.922C56.4219 15.2299 56.2768 15.5191 56.0845 15.7763C55.8971 16.0219 55.6582 16.2234 55.3844 16.3664C54.7787 16.6598 54.072 16.6598 53.4664 16.3664C53.1925 16.2236 52.9534 16.0221 52.7663 15.7763C52.574 15.5191 52.4289 15.2299 52.3377 14.922C52.1419 14.269 52.1419 13.5729 52.3377 12.9199ZM57.8145 11.0137H57.3512L59.1955 16.8282H59.7332L61.337 11.5566H61.3591L62.9518 16.8282H63.4823L65.3457 11.0137H64.8714L63.2484 16.3303H63.2255L61.6336 11.0137H61.0574L59.4765 16.3303H59.4537L57.8145 11.0137ZM65.5603 16.8282H65.9889V13.6834C65.9856 13.352 66.0334 13.0221 66.1306 12.7052C66.2154 12.424 66.3553 12.1624 66.5422 11.9358C66.7213 11.7223 66.9448 11.5506 67.1973 11.4327C67.4738 11.3078 67.7747 11.2461 68.0781 11.2519C68.3992 11.2344 68.7186 11.3089 68.9988 11.4666C69.2052 11.594 69.376 11.7717 69.4952 11.983C69.6027 12.1768 69.67 12.3903 69.6929 12.6108C69.7134 12.7911 69.7247 12.9723 69.7269 13.1537V16.8305H70.1562V13.2312C70.1562 13.1109 70.1562 12.9693 70.1444 12.807C70.1362 12.6377 70.1137 12.4694 70.0773 12.3039C70.0373 12.1245 69.9745 11.951 69.8906 11.7875C69.8014 11.6142 69.6808 11.4589 69.5351 11.3294C69.365 11.1825 69.1674 11.071 68.9538 11.0011C68.6745 10.9118 68.3823 10.8696 68.0892 10.8764C67.8648 10.8767 67.6415 10.9072 67.4252 10.9672C66.9976 11.0842 66.6168 11.3311 66.3356 11.6739C66.1943 11.8473 66.0854 12.0447 66.014 12.2567H65.9911V11.0137H65.5611V16.8282H65.5603ZM71.0484 8.75185V16.8282H71.4778V8.75185H71.0484ZM72.7816 15.0961C72.8899 15.4487 73.0652 15.7771 73.298 16.0632C73.5258 16.3398 73.811 16.5636 74.1339 16.7191C74.8595 17.0437 75.6892 17.0437 76.4148 16.7191C76.7377 16.5636 77.0229 16.3398 77.2507 16.0632C77.4835 15.7771 77.6588 15.4487 77.7671 15.0961C77.886 14.7153 77.9452 14.3184 77.9426 13.9195C77.9454 13.5225 77.8862 13.1275 77.7671 12.7487C77.6571 12.3968 77.4819 12.0688 77.2507 11.7816C77.0244 11.5014 76.739 11.2747 76.4148 11.1177C75.6891 10.7934 74.8596 10.7934 74.1339 11.1177C73.8097 11.2747 73.5243 11.5014 73.298 11.7816C73.0668 12.0688 72.8916 12.3968 72.7816 12.7487C72.6628 13.1275 72.6038 13.5225 72.6068 13.9195C72.6041 14.3189 72.6633 14.7163 72.7824 15.0976L72.7816 15.0961ZM73.1823 12.9184C73.274 12.6106 73.4194 12.3214 73.6116 12.0641C73.798 11.8167 74.0372 11.6138 74.3117 11.4703C74.9173 11.1767 75.6241 11.1767 76.2297 11.4703C76.5043 11.6138 76.7434 11.8167 76.9298 12.0641C77.1221 12.3214 77.2674 12.6106 77.3592 12.9184C77.5549 13.5714 77.5549 14.2675 77.3592 14.9205C77.2674 15.2283 77.1221 15.5175 76.9298 15.7748C76.7429 16.0207 76.5038 16.2223 76.2297 16.365C75.6241 16.6586 74.9173 16.6586 74.3117 16.365C74.0377 16.2223 73.7986 16.0207 73.6116 15.7748C73.4194 15.5175 73.274 15.2283 73.1823 14.9205C72.9871 14.2679 72.9873 13.5724 73.183 12.9199L73.1823 12.9184ZM83.3118 15.9784C83.3112 16.0902 83.3206 16.2018 83.3399 16.3118C83.3561 16.4071 83.3929 16.4977 83.4476 16.5774C83.5065 16.6582 83.5867 16.721 83.6792 16.7589C83.8104 16.8093 83.9504 16.8324 84.0908 16.8268C84.2091 16.8269 84.327 16.8116 84.4413 16.781V16.4181C84.3368 16.4373 84.231 16.4486 84.1248 16.452C84.0446 16.4574 83.965 16.4353 83.899 16.3893C83.846 16.3471 83.8068 16.2901 83.7862 16.2255C83.7623 16.1523 83.7489 16.076 83.7463 15.9991C83.7463 15.9164 83.7412 15.8331 83.7412 15.7505V12.371C83.7546 11.9565 83.5777 11.5587 83.2609 11.291C82.8151 10.9782 82.2736 10.832 81.7309 10.8779C81.1499 10.84 80.5745 11.0105 80.108 11.3589C79.7055 11.7291 79.4814 12.2544 79.4927 12.8011H79.9221C79.9177 12.3546 80.1097 11.9286 80.4473 11.6363C80.8097 11.3663 81.2545 11.2305 81.7058 11.2519C81.9575 11.2467 82.2086 11.2772 82.4517 11.3427C82.6321 11.3915 82.8009 11.476 82.9481 11.5913C83.0694 11.6882 83.1662 11.8123 83.2307 11.9535C83.2915 12.0931 83.3221 12.2439 83.3207 12.3961C83.3232 12.5664 83.3118 12.7367 83.2867 12.9051C83.2689 13.0319 83.2095 13.1492 83.1178 13.2386C83.0027 13.3382 82.8649 13.4081 82.7165 13.4422C82.4777 13.5008 82.2339 13.5369 81.9884 13.5499L81.3244 13.6067C81.0799 13.6309 80.8368 13.6686 80.5963 13.7196C80.3533 13.7685 80.1203 13.8583 79.9073 13.9851C79.4348 14.2611 79.1576 14.7793 79.1903 15.3255C79.1526 15.7958 79.3414 16.2559 79.6985 16.5641C80.1175 16.8562 80.6229 16.9979 81.1326 16.9662C81.3926 16.9676 81.6514 16.9321 81.9013 16.8607C82.1231 16.798 82.3342 16.7025 82.5276 16.5774C82.7037 16.4644 82.8617 16.3254 82.9961 16.165C83.1205 16.0181 83.2201 15.8519 83.2912 15.673H83.314V15.9784H83.3118ZM83.3121 14.6092C83.3026 14.7557 83.2819 14.9012 83.2501 15.0445C83.1983 15.2825 83.1003 15.5081 82.9617 15.7084C82.791 15.9575 82.5676 16.1661 82.3073 16.3192C81.9516 16.5139 81.5489 16.606 81.144 16.5855C80.7471 16.608 80.3538 16.4986 80.0256 16.2742C79.7418 16.04 79.5901 15.682 79.6191 15.3152C79.6087 15.0834 79.6637 14.8533 79.7778 14.6513C79.8795 14.4854 80.021 14.3475 80.1894 14.25C80.3666 14.1492 80.5593 14.0784 80.7596 14.0405C80.9706 13.9991 81.1816 13.9672 81.3926 13.9446L82.1148 13.8767C82.3557 13.8574 82.5951 13.8234 82.8318 13.7749C83.0172 13.7462 83.1869 13.6542 83.3121 13.5145V14.6107V14.6092ZM90.0758 16.8268H90.5051V8.75185H90.0758V12.315H90.0529C89.9083 11.8749 89.6148 11.499 89.223 11.2519C89.0282 11.1302 88.8171 11.0368 88.5959 10.9746C88.3718 10.9108 88.1399 10.8786 87.9069 10.8787C87.5136 10.8694 87.1234 10.9507 86.7664 11.1162C86.452 11.2672 86.1761 11.4877 85.9594 11.7609C85.7366 12.0487 85.5733 12.378 85.4791 12.7296C85.2725 13.4996 85.2687 14.3101 85.4681 15.0821C85.5575 15.4296 85.7106 15.7575 85.9195 16.0492C86.1245 16.3277 86.3911 16.555 86.6986 16.7132C87.4834 17.0767 88.3951 17.041 89.1492 16.6173C89.5362 16.3587 89.848 16.0024 90.0529 15.5845H90.075V16.829L90.0758 16.8268ZM86.948 16.3687C86.6817 16.226 86.4518 16.0241 86.2759 15.7785C86.0945 15.5196 85.9608 15.2302 85.8813 14.9242C85.7939 14.6015 85.75 14.2686 85.7507 13.9342C85.7499 13.595 85.7897 13.257 85.8694 12.9273C85.9415 12.6189 86.072 12.3271 86.2538 12.0678C86.4286 11.8206 86.6584 11.6173 86.9251 11.474C87.229 11.3191 87.5668 11.243 87.9077 11.2527C88.2436 11.2449 88.576 11.3229 88.8734 11.4791C89.1421 11.6248 89.3724 11.8321 89.5454 12.0841C89.7229 12.3465 89.8546 12.6371 89.9349 12.9435C90.0217 13.2663 90.0654 13.5992 90.0648 13.9335C90.0648 14.2639 90.0212 14.5928 89.9349 14.9117C89.8553 15.2176 89.7213 15.5067 89.5395 15.7652C89.3656 16.012 89.1388 16.2169 88.8756 16.365C88.5826 16.5218 88.2539 16.5998 87.9217 16.5914C87.584 16.6006 87.2493 16.5245 86.9487 16.3701L86.948 16.3687ZM94.9157 15.0961C95.0239 15.4487 95.1993 15.7771 95.4321 16.0632C95.6599 16.3398 95.9451 16.5636 96.2679 16.7191C96.9936 17.0437 97.8232 17.0437 98.5489 16.7191C98.8717 16.5636 99.1569 16.3398 99.3847 16.0632C99.6175 15.7771 99.7928 15.4487 99.9011 15.0961C100.02 14.7152 100.079 14.3184 100.077 13.9195C100.079 13.5225 100.02 13.1275 99.9011 12.7487C99.7911 12.3968 99.6159 12.0688 99.3847 11.7816C99.1584 11.5014 98.873 11.2747 98.5489 11.1177C97.8231 10.7934 96.9936 10.7934 96.2679 11.1177C95.9437 11.2747 95.6583 11.5014 95.4321 11.7816C95.2008 12.0688 95.0257 12.3968 94.9157 12.7487C94.7965 13.1275 94.7373 13.5225 94.7401 13.9195C94.7376 14.3189 94.7971 14.7164 94.9164 15.0976L94.9157 15.0961ZM95.3156 12.9184C95.4073 12.6106 95.5527 12.3214 95.7449 12.0641C95.9313 11.8167 96.1705 11.6138 96.445 11.4703C97.0507 11.1767 97.7574 11.1767 98.3631 11.4703C98.6376 11.6138 98.8767 11.8167 99.0631 12.0641C99.2554 12.3214 99.4007 12.6106 99.4925 12.9184C99.6882 13.5714 99.6882 14.2675 99.4925 14.9205C99.4007 15.2283 99.2554 15.5175 99.0631 15.7748C98.8762 16.0207 98.6371 16.2223 98.3631 16.365C97.7574 16.6586 97.0507 16.6586 96.445 16.365C96.171 16.2223 95.9319 16.0207 95.7449 15.7748C95.5527 15.5175 95.4073 15.2283 95.3156 14.9205C95.1204 14.2679 95.1206 13.5724 95.3163 12.9199L95.3156 12.9184ZM101.097 16.8282H101.526V13.6834C101.523 13.3521 101.571 13.0222 101.667 12.7052C101.752 12.424 101.893 12.1625 102.08 11.9358C102.259 11.7223 102.482 11.5506 102.735 11.4327C103.011 11.3078 103.312 11.2461 103.615 11.2519C103.937 11.2345 104.256 11.309 104.536 11.4666C104.743 11.594 104.913 11.7717 105.033 11.983C105.14 12.1769 105.207 12.3904 105.23 12.6108C105.251 12.7911 105.262 12.9723 105.264 13.1537V16.8305H105.692V13.2312C105.692 13.1109 105.688 12.9693 105.68 12.807C105.672 12.6378 105.649 12.4695 105.613 12.3039C105.573 12.1245 105.51 11.951 105.427 11.7875C105.337 11.6142 105.217 11.4589 105.071 11.3294C104.901 11.1825 104.703 11.0709 104.489 11.0011C104.21 10.9117 103.918 10.8696 103.625 10.8764C103.401 10.8767 103.177 10.9072 102.961 10.9672C102.533 11.0842 102.153 11.3311 101.872 11.6739C101.73 11.8473 101.621 12.0447 101.55 12.2567H101.527V11.0137H101.098V16.8282H101.097ZM112.683 11.0137H111.419V9.20406H110.99V11.0137H109.917V11.3869H110.99V15.4443C110.963 15.7103 111.004 15.9787 111.108 16.2248C111.19 16.4 111.321 16.5475 111.486 16.649C111.654 16.7461 111.841 16.8041 112.034 16.8187C112.246 16.8373 112.46 16.8392 112.672 16.8246V16.455C112.493 16.4631 112.314 16.4591 112.136 16.4432C111.996 16.433 111.86 16.3884 111.741 16.3133C111.629 16.2382 111.543 16.1291 111.498 16.002C111.438 15.8236 111.412 15.6359 111.419 15.448V11.3906H112.683V11.0137ZM113.2 8.75111V16.8275H113.629V13.6834C113.626 13.352 113.673 13.0221 113.77 12.7052C113.855 12.424 113.996 12.1625 114.183 11.9358C114.362 11.7223 114.585 11.5506 114.838 11.4327C115.116 11.3075 115.42 11.2465 115.725 11.2541C116.046 11.2367 116.365 11.3112 116.645 11.4688C116.852 11.5962 117.023 11.7739 117.142 11.9852C117.249 12.1792 117.317 12.3926 117.34 12.613C117.362 12.8343 117.374 13.0128 117.374 13.1559V16.8327H117.802V13.2312C117.802 13.1107 117.799 12.9693 117.791 12.807C117.783 12.6377 117.76 12.4694 117.724 12.3039C117.684 12.1245 117.622 11.9509 117.538 11.7875C117.448 11.6143 117.327 11.459 117.181 11.3294C117.011 11.1825 116.814 11.071 116.6 11.0011C116.321 10.9118 116.029 10.8696 115.736 10.8764C115.512 10.8767 115.288 10.9072 115.072 10.9672C114.645 11.0842 114.264 11.3311 113.983 11.6739C113.841 11.8472 113.732 12.0447 113.66 12.2567H113.638V8.75185H113.209L113.2 8.75111ZM124.639 13.977C124.639 13.9468 124.639 13.9077 124.645 13.8582C124.65 13.8088 124.65 13.766 124.65 13.7284C124.653 13.3545 124.598 12.9825 124.487 12.6255C124.385 12.2963 124.222 11.9892 124.006 11.7204C123.794 11.4589 123.526 11.2481 123.222 11.1037C122.885 10.9474 122.516 10.8699 122.144 10.8772C121.743 10.8673 121.346 10.9546 120.986 11.1317C120.667 11.2948 120.387 11.5266 120.167 11.8104C119.943 12.1046 119.777 12.4385 119.676 12.7945C119.566 13.1749 119.511 13.5691 119.512 13.9652C119.509 14.3641 119.562 14.7615 119.67 15.1455C119.766 15.491 119.929 15.814 120.15 16.0957C120.366 16.3646 120.641 16.581 120.952 16.7287C121.304 16.8905 121.689 16.97 122.076 16.961C122.686 16.9908 123.286 16.7978 123.764 16.4181C124.214 16.0107 124.508 15.4584 124.594 14.8571H124.165C124.068 15.3437 123.823 15.7882 123.463 16.1296C123.077 16.451 122.583 16.6147 122.082 16.5878C121.758 16.5948 121.438 16.525 121.147 16.3841C120.886 16.2525 120.659 16.0627 120.483 15.8294C120.301 15.5858 120.164 15.3107 120.081 15.0179C119.989 14.7017 119.944 14.3741 119.945 14.0449V13.9778H124.643L124.639 13.977ZM119.953 13.6037C119.976 13.3021 120.037 13.0046 120.135 12.7185C120.226 12.4438 120.368 12.1886 120.553 11.966C120.738 11.7487 120.965 11.5716 121.221 11.4459C121.509 11.3105 121.825 11.2448 122.143 11.2541C122.443 11.2487 122.74 11.3147 123.009 11.4467C123.258 11.5718 123.478 11.7477 123.655 11.9631C123.836 12.1838 123.972 12.4373 124.057 12.7096C124.149 13.0011 124.202 13.3035 124.216 13.6089H119.958L119.953 13.6037ZM42.9883 36.0565H43.9473L45.7967 31.3942H52.7481L54.5776 36.0565H55.533L49.801 21.5193H48.825L42.9883 36.0565ZM46.0789 30.6204L49.3107 22.395H49.3513L52.4615 30.6204H46.0862H46.0789ZM57.1361 25.5914H56.3837V39.8033H57.1361V33.8781H57.1767C57.4275 34.6578 57.957 35.3176 58.6639 35.7312C59.3758 36.1193 60.1763 36.3155 60.987 36.3007C61.7044 36.3175 62.4169 36.1786 63.0754 35.8935C63.6461 35.6374 64.1486 35.2505 64.542 34.7641C64.9433 34.2543 65.2378 33.669 65.408 33.043C65.6052 32.3271 65.7013 31.5871 65.6935 30.8446C65.6967 30.1357 65.6008 29.4298 65.4088 28.7473C65.2348 28.1139 64.9416 27.5195 64.5449 26.996C64.1538 26.4905 63.6535 26.0799 63.0813 25.795C62.432 25.4832 61.7181 25.3297 60.998 25.3473C60.0344 25.3271 59.0959 25.6559 58.3556 26.2731C58.0598 26.5191 57.8057 26.8113 57.6031 27.1384C57.4342 27.4066 57.2978 27.6938 57.1966 27.9941H57.1361V25.5914ZM59.1433 35.2318C58.6668 34.9842 58.2608 34.62 57.963 34.1732C57.6607 33.7083 57.4499 33.19 57.3419 32.6461C57.2178 32.0537 57.1562 31.4499 57.1582 30.8446C57.1561 30.238 57.2245 29.6333 57.3618 29.0424C57.4861 28.4933 57.7112 27.972 58.0257 27.505C58.3325 27.0564 58.741 26.6866 59.2178 26.4258C60.3484 25.8792 61.6676 25.883 62.795 26.4361C63.2789 26.7037 63.6938 27.0803 64.007 27.536C64.3274 28.0077 64.5621 28.5321 64.7005 29.0852C65.003 30.2678 64.9994 31.508 64.6901 32.6889C64.5488 33.2347 64.3069 33.7493 63.9768 34.2064C63.6563 34.6416 63.2391 34.9964 62.7581 35.2428C62.2104 35.5127 61.6054 35.6456 60.995 35.6301C60.3554 35.6511 59.7205 35.5134 59.147 35.2296L59.1433 35.2318ZM68.925 25.5914H68.1725V39.8033H68.925V33.8781H68.9648C69.2161 34.6575 69.7455 35.3172 70.4521 35.7312C71.1639 36.1192 71.9645 36.3155 72.7751 36.3007C73.4925 36.3175 74.205 36.1786 74.8635 35.8935C75.4346 35.6379 75.9371 35.2509 76.3301 34.7641C76.7317 34.2545 77.0263 33.6691 77.1962 33.043C77.3933 32.3271 77.4894 31.5871 77.4816 30.8446C77.4848 30.1357 77.389 29.4298 77.1969 28.7473C77.0229 28.1139 76.7297 27.5195 76.333 26.996C75.9422 26.4903 75.4418 26.0797 74.8694 25.795C74.2202 25.4831 73.5062 25.3296 72.7861 25.3473C71.8225 25.3271 70.884 25.6559 70.1437 26.2731C69.8499 26.5198 69.5978 26.8122 69.3971 27.1391C69.228 27.4071 69.0915 27.6944 68.9907 27.9949H68.9294V25.5922L68.925 25.5914ZM70.9322 35.2318C70.4557 34.9842 70.0496 34.62 69.7519 34.1732C69.4499 33.7081 69.2391 33.1899 69.1307 32.6461C69.0067 32.0537 68.9451 31.4499 68.947 30.8446C68.945 30.238 69.0133 29.6333 69.1506 29.0424C69.2753 28.4934 69.5004 27.9722 69.8146 27.505C70.1218 27.0565 70.5305 26.6868 71.0074 26.4258C72.1378 25.8792 73.4567 25.883 74.5838 26.4361C75.0678 26.7039 75.483 27.0804 75.7966 27.536C76.1164 28.0079 76.3509 28.5322 76.4893 29.0852C76.7918 30.2678 76.7883 31.508 76.479 32.6889C76.3377 33.2347 76.0957 33.7493 75.7656 34.2064C75.4443 34.6426 75.0258 34.998 74.5433 35.2443C73.9956 35.5142 73.3905 35.6471 72.7801 35.6316C72.1417 35.6515 71.5082 35.5134 70.9359 35.2296L70.9322 35.2318ZM95.4515 25.6726C95.4327 24.9586 95.2593 24.2571 94.9432 23.6166C94.6606 23.0655 94.2535 22.5878 93.754 22.2216C93.2334 21.8502 92.6472 21.5809 92.0263 21.4278C91.3317 21.2536 90.6178 21.1681 89.9017 21.1733C89.3194 21.1748 88.7393 21.2464 88.174 21.3865C87.6147 21.5195 87.082 21.7467 86.599 22.0586C86.1308 22.3646 85.741 22.7762 85.4608 23.2603C85.157 23.8038 85.0058 24.4194 85.0233 25.0418C84.9987 25.6368 85.1471 26.2262 85.4504 26.7386C85.735 27.1798 86.1177 27.5492 86.5688 27.8178C87.0639 28.1115 87.5975 28.3349 88.1541 28.4818C88.7502 28.645 89.3531 28.7877 89.963 28.9096C90.5866 29.0316 91.193 29.1639 91.7821 29.3065C92.331 29.4342 92.863 29.6256 93.3675 29.8768C93.8123 30.0953 94.1991 30.4161 94.4962 30.8129C94.796 31.2528 94.9456 31.7778 94.9226 32.3097C94.9441 32.8688 94.7991 33.4216 94.5057 33.898C94.2383 34.3086 93.8846 34.6559 93.4693 34.916C93.0503 35.176 92.5896 35.3619 92.1075 35.4656C91.6507 35.5698 91.1839 35.6244 90.7154 35.6286C90.0242 35.6318 89.3351 35.5531 88.6624 35.3941C88.0513 35.2561 87.4742 34.9964 86.9657 34.6305C86.4848 34.2781 86.0976 33.8134 85.8377 33.2768C85.5509 32.6423 85.4318 31.9448 85.4917 31.2511H84.5976C84.5603 32.0701 84.717 32.8863 85.055 33.6332C85.3563 34.264 85.8061 34.8123 86.3659 35.231C86.9493 35.6581 87.613 35.963 88.3171 36.1273C89.1029 36.315 89.9084 36.4072 90.7162 36.4018C91.3016 36.3983 91.8846 36.3267 92.4535 36.1886C93.0395 36.0532 93.5969 35.8151 94.1 35.4855C94.5964 35.1587 95.016 34.728 95.3298 34.2233C95.6719 33.6452 95.8414 32.9811 95.8181 32.3097C95.8409 31.6944 95.6931 31.0847 95.391 30.5481C95.1102 30.0845 94.7237 29.6939 94.263 29.4083C93.7693 29.1051 93.2357 28.8719 92.6777 28.7156C92.0876 28.5464 91.4809 28.4006 90.8578 28.2782C90.2485 28.1557 89.6455 28.0268 89.0489 27.8916C88.5016 27.7727 87.9697 27.5915 87.4636 27.3516C87.0272 27.1472 86.6444 26.8442 86.3453 26.4664C86.0464 26.053 85.8962 25.5507 85.9189 25.0411C85.8997 24.5153 86.0338 23.9953 86.3047 23.5443C86.5536 23.1516 86.8915 22.8231 87.291 22.5853C87.6932 22.3467 88.133 22.1781 88.5916 22.0866C89.0227 21.9952 89.4618 21.9473 89.9025 21.9435C90.5235 21.9383 91.1424 22.0172 91.7423 22.1781C92.2675 22.3163 92.761 22.5548 93.1956 22.8804C93.5998 23.1905 93.9297 23.5869 94.1612 24.0408C94.4095 24.5487 94.5447 25.1044 94.5574 25.6696H95.4522L95.4515 25.6726ZM101.691 25.5914H99.4219V22.3345H98.6496V25.5922H96.719V26.2642H98.6496V33.5734C98.6031 34.0511 98.6766 34.5329 98.8635 34.975C99.0107 35.2908 99.2475 35.5563 99.5444 35.7386C99.8454 35.9141 100.182 36.0186 100.53 36.044C100.912 36.0781 101.296 36.0816 101.679 36.0543V35.3823C101.357 35.3973 101.034 35.3906 100.713 35.3623C100.46 35.3439 100.216 35.2633 100.002 35.1277C99.7996 34.993 99.6462 34.7966 99.5643 34.5678C99.4574 34.2466 99.4091 33.9088 99.4219 33.5705V26.2613H101.698V25.5892L101.691 25.5914ZM102.335 32.9412C102.529 33.5755 102.843 34.1666 103.26 34.6822C103.67 35.1802 104.183 35.583 104.764 35.8625C106.071 36.4458 107.564 36.4458 108.87 35.8625C109.451 35.583 109.965 35.1802 110.374 34.6822C110.792 34.1666 111.106 33.5755 111.3 32.9412C111.512 32.2558 111.619 31.5417 111.615 30.824C111.619 30.1094 111.513 29.3984 111.3 28.7164C111.103 28.0835 110.789 27.4933 110.374 26.9761C109.967 26.4731 109.453 26.0663 108.87 25.7847C107.564 25.2014 106.071 25.2014 104.764 25.7847C104.181 26.0663 103.668 26.4731 103.26 26.9761C102.846 27.4933 102.532 28.0835 102.335 28.7164C102.121 29.3983 102.015 30.1094 102.02 30.824C102.017 31.5424 102.124 32.257 102.339 32.9427L102.335 32.9412ZM103.057 29.0218C103.221 28.4678 103.483 27.9474 103.83 27.4851C104.165 27.0394 104.595 26.6742 105.09 26.4162C106.18 25.8861 107.454 25.8861 108.545 26.4162C109.039 26.6742 109.47 27.0394 109.805 27.4851C110.151 27.9478 110.413 28.468 110.578 29.0218C110.93 30.1974 110.93 31.4505 110.578 32.6262C110.413 33.18 110.151 33.7003 109.805 34.1628C109.47 34.6085 109.039 34.9737 108.545 35.2318C107.454 35.7619 106.18 35.7619 105.09 35.2318C104.595 34.9737 104.165 34.6085 103.83 34.1628C103.483 33.7006 103.221 33.1802 103.057 32.6262C102.705 31.4505 102.707 30.1974 103.061 29.0225L103.057 29.0218ZM114.197 25.5914H113.425V36.0565H114.197V30.3356C114.205 29.9942 114.239 29.6538 114.299 29.3176C114.346 29.0528 114.42 28.7935 114.52 28.5437C114.611 28.319 114.731 28.1068 114.876 27.9123C115.031 27.7068 115.197 27.5098 115.374 27.3221C115.785 26.8984 116.3 26.5895 116.868 26.4258C117.32 26.2964 117.793 26.2551 118.26 26.3041V25.5302C117.798 25.5155 117.336 25.5669 116.888 25.6829C116.466 25.7907 116.063 25.9586 115.689 26.1816C115.343 26.3876 115.034 26.6491 114.774 26.9555C114.535 27.2344 114.359 27.5615 114.258 27.9145H114.197V25.5937V25.5914ZM127.815 30.9258C127.815 30.8719 127.815 30.8004 127.826 30.7118C127.836 30.6233 127.835 30.5459 127.835 30.478C127.84 29.805 127.741 29.1353 127.54 28.4928C127.357 27.9006 127.064 27.3481 126.676 26.864C126.294 26.3946 125.811 26.0166 125.264 25.7574C124.656 25.4762 123.992 25.3369 123.322 25.3502C122.601 25.3325 121.886 25.4897 121.239 25.8083C120.663 26.1016 120.159 26.5188 119.763 27.03C119.36 27.5592 119.059 28.1598 118.878 28.8005C118.68 29.485 118.58 30.1945 118.583 30.9073C118.578 31.6266 118.674 32.3431 118.868 33.0356C119.039 33.6574 119.333 34.2387 119.732 34.7456C120.121 35.2297 120.614 35.6196 121.175 35.8861C121.809 36.1765 122.501 36.319 123.197 36.3029C124.295 36.3567 125.375 36.0096 126.236 35.3262C127.047 34.5924 127.575 33.5985 127.731 32.5163H126.958C126.784 33.392 126.342 34.1921 125.695 34.8068C124.999 35.3858 124.111 35.6804 123.208 35.6316C122.626 35.6436 122.05 35.5171 121.527 35.2627C121.054 35.0271 120.643 34.6856 120.324 34.2646C119.995 33.8246 119.75 33.3277 119.6 32.7988C119.435 32.23 119.353 31.6405 119.355 31.0482V30.9258H127.812H127.815ZM119.38 30.2537C119.421 29.7119 119.532 29.1777 119.709 28.664C119.873 28.1697 120.129 27.7106 120.463 27.3103C120.795 26.9189 121.204 26.6 121.665 26.3734C122.18 26.1275 122.745 26.0055 123.316 26.0171C123.856 26.0073 124.391 26.1261 124.876 26.3638C125.323 26.5884 125.718 26.9037 126.037 27.2896C126.362 27.6872 126.607 28.1435 126.76 28.6337C126.926 29.1584 127.022 29.7026 127.046 30.2523H119.383L119.38 30.2537Z" fill="white"/>
<path fill-rule="evenodd" clip-rule="evenodd" d="M28.004 15.206C31.233 15.206 33.2978 18.3043 33.2978 18.3043C31.3855 19.4322 30.1936 21.4699 30.1478 23.6896C30.1384 26.2197 31.7235 28.4814 34.1049 29.336C34.1049 29.336 30.9814 36.6931 27.4744 36.6931C25.5032 36.6931 25.3704 35.5666 22.7531 35.5666C20.4772 35.5666 19.7093 36.6931 17.9757 36.6931C14.6678 36.6931 10.3936 29.5219 10.3936 23.6896C10.3936 17.6316 14.7202 15.206 17.4335 15.206C19.8155 15.206 20.8077 16.5973 22.7265 16.5973C24.3384 16.5973 25.6087 15.206 28.004 15.206ZM27.4482 9.02844C27.924 11.9977 25.2115 15.6678 21.9693 15.5505C21.4927 11.7705 24.988 9.22762 27.4482 9.02844Z" fill="white"/>
<defs>
<linearGradient id="paint0_linear_3422_9395" x1="74.9306" y1="1" x2="74.9306" y2="45.2623" gradientUnits="userSpaceOnUse">
<stop stop-color="#A7ACB1"/>
<stop offset="0.0989583" stop-color="#BABFC3"/>
</linearGradient>
</defs>
</svg>
