<svg width="26" height="26" fill="none" xmlns="http://www.w3.org/2000/svg"><path d="m21.973 16.11-4.21-4.95 3.74-2.134a.762.762 0 0 0-.755-1.323L13 12.123l-7.747-4.42a.762.762 0 1 0-.755 1.323l3.74 2.134-4.21 4.95a.762.762 0 1 0 1.16.987l4.396-5.17 3.039 1.735a.762.762 0 0 0 .755 0l3.038-1.734 4.397 5.169a.762.762 0 0 0 1.16-.987Z" fill="#EDC5A2"/><path d="M23.715 4.113H2.285A2.288 2.288 0 0 0 0 6.398v13.204a2.288 2.288 0 0 0 2.285 2.285h21.43A2.288 2.288 0 0 0 26 19.602V6.398a2.288 2.288 0 0 0-2.285-2.285Zm.762 15.489c0 .42-.342.761-.762.761H2.285a.763.763 0 0 1-.762-.761V6.398c0-.42.342-.761.762-.761h21.43c.42 0 .762.341.762.761v13.204Z" fill="#EDC5A2"/></svg>