<svg width="150" height="46" viewBox="0 0 150 46" fill="none" xmlns="http://www.w3.org/2000/svg">
<rect x="1.11064" y="0.631148" width="148.279" height="45" rx="6.27049" stroke="white" stroke-opacity="0.2" stroke-width="0.737705"/>
<path fill-rule="evenodd" clip-rule="evenodd" d="M114.036 36.5817H112.907V24.1396H114.036V36.5817ZM123.071 35.4508V29.7948C123.071 29.7948 122.757 27.4755 119.334 27.4755C115.91 27.4755 115.813 29.9837 115.813 29.9837H116.898C116.898 29.9837 116.845 28.2692 119.308 28.2692C121.77 28.2692 121.941 29.7948 121.941 29.7948V30.9264H119.683C116.811 30.9264 115.443 32.5376 115.443 34.0831C115.443 35.6286 116.303 36.7263 118.408 36.7263C119.695 36.7095 120.94 36.2603 121.941 35.4508V36.5817H123.071V35.4508ZM121.941 33.1882C121.941 34.9727 119.585 35.8676 118.5 35.8676C117.415 35.8676 116.515 35.3512 116.515 34.1627C116.515 32.9743 117.962 32.0573 119.687 32.0573H121.945V33.1882H121.941ZM124.2 27.533H125.33L128.21 35.211L130.975 27.533H132.105C132.105 27.533 129.105 37.9191 128.717 38.8442C128.329 39.7693 126.719 40.2149 125.581 40.2149C125.222 40.1946 124.872 40.0921 124.558 39.9154L124.841 39.1223C125.079 39.2276 125.339 39.2761 125.599 39.264C126.102 39.264 126.975 38.1006 126.975 38.1006L127.611 36.5854L124.2 27.533ZM107.644 27.4755C106.62 27.4056 105.629 27.8515 105.002 28.6639V27.533H103.873V39.9751H105.002V35.4508C105.037 35.5083 105.486 36.7263 107.67 36.7263C109.894 36.7263 111.614 35.2988 111.614 32.03C111.614 28.7613 109.553 27.4755 107.644 27.4755ZM107.488 35.9067C105.664 35.9067 105.04 33.2458 105.005 33.1882V30.9264C105.04 30.8785 105.844 28.3216 107.621 28.3216C109.235 28.3216 110.585 29.96 110.585 32.1009C110.585 34.2417 109.338 35.9067 107.488 35.9067ZM56.2315 25.1421C56.2315 25.1421 54.7627 23.6497 51.089 23.6497C49.2597 23.5758 47.478 24.2426 46.1468 25.4995C44.8157 26.7564 44.0477 28.4969 44.0166 30.3274C44.0166 33.1661 45.9818 36.7506 50.8684 36.7506C52.6896 36.6831 54.4934 36.3712 56.2315 35.8233V33.6213C56.2315 32.5391 57.5764 32.0573 57.5764 32.0573H53.0594L51.6762 32.93C52.5704 32.8017 53.4737 32.7469 54.3769 32.7663V35.4958C53.6973 35.8299 52.9483 35.9982 52.1911 35.9871C48.7109 35.9159 45.9229 33.0816 45.9088 29.6008C45.9088 25.8798 48.5719 24.3055 50.8861 24.3055C52.2835 24.3241 53.604 24.9483 54.5053 26.0163L54.0826 26.7075L54.7627 26.5253L56.2315 25.1421ZM62.4496 27.5101C61.1897 27.4669 59.9673 27.9426 59.0681 28.8259C58.1688 29.7093 57.6714 30.9231 57.6921 32.1835C57.7201 34.6283 59.714 36.5932 62.1589 36.5854C65.0139 36.5854 67.0145 34.685 67.0145 32.0116C67.0564 30.7937 66.5863 29.6139 65.7184 28.7585C64.8504 27.9031 63.6638 27.4504 62.4467 27.5101H62.4496ZM62.6441 36.0033C60.4804 36.0033 59.4587 32.6682 59.4587 30.981C59.4587 29.2939 60.6051 28.0922 61.9256 28.0922C63.8097 28.0922 65.1103 30.3112 65.1103 32.9013C65.1073 33.7932 64.8048 36.0033 62.6412 36.0033H62.6441ZM72.6521 27.5146C71.3928 27.4715 70.171 27.947 69.2721 28.8299C68.3731 29.7128 67.8757 30.9259 67.8961 32.1857C67.924 34.6295 69.9174 36.5936 72.3614 36.5854C75.2148 36.5854 77.214 34.6865 77.214 32.0116C77.256 30.7946 76.7862 29.6157 75.9187 28.7611C75.0512 27.9065 73.8653 27.4544 72.6491 27.5146H72.6521ZM72.8458 36.0041C70.6836 36.0041 69.6627 32.6704 69.6627 30.9877C69.6627 29.305 70.8083 28.1003 72.1281 28.1003C74.0114 28.1003 75.312 30.3186 75.312 32.9064C75.309 33.7946 75.0058 36.0041 72.8429 36.0041H72.8458ZM84.7432 35.9421C83.8071 35.2973 83.6241 34.989 83.6241 34.7094C83.6241 34.4298 83.6337 34.2041 84.2991 33.5733C85.0803 32.9826 85.5494 32.0678 85.5731 31.0887C85.6084 30.0922 85.1633 29.1393 84.3766 28.5267L85.5148 28.4883L86.6531 27.8141H82.2158C80.1166 27.7408 78.3432 29.3576 78.2226 31.4546C78.2226 32.7825 79.3506 34.3723 81.5792 34.3723C81.7094 34.374 81.8392 34.3578 81.965 34.3243C81.8759 34.5413 81.83 34.7736 81.83 35.0082C81.8739 35.4595 82.0674 35.8832 82.3796 36.2121C82.3796 36.2121 77.2385 36.2173 77.2385 39.5059C77.2385 41.4941 79.4863 42.2406 81.3284 42.2406C83.1704 42.2406 86.3248 41.2491 86.3248 38.7159C86.3055 37.5812 85.7078 36.5351 84.7403 35.9421H84.7432ZM82.3028 33.7946C80.9572 33.7946 79.8861 31.7866 79.8861 30.5731C79.8861 29.3596 80.4939 28.4927 81.5643 28.4927C82.6347 28.4927 83.9088 29.7203 83.9088 31.96C83.9058 32.7397 83.6454 33.7946 82.2998 33.7946H82.3028ZM82.2018 41.4225C81.5791 41.4225 78.9315 41.1768 78.9315 39.0818C78.9315 36.9867 81.9841 36.7949 82.3382 36.7949C82.5588 36.7956 82.779 36.8126 82.997 36.8458C83.9376 37.6764 84.9792 38.0881 84.9792 39.3879C84.9763 41.2491 82.8207 41.4262 82.1988 41.4262L82.2018 41.4225ZM86.9368 24.1396L87.6944 22.9939L90.325 23.0079C89.6759 23.3539 89.2126 23.6571 89.1956 25.2705C89.1786 26.8838 89.1956 34.3199 89.1956 34.3199C89.2979 35.032 89.8005 35.6219 90.4873 35.8359C90.7044 35.8256 90.9216 35.8546 91.1284 35.9214L90.325 36.5854H86.9368C86.9368 36.5854 88.0603 35.886 88.0662 35.4545V24.1396H86.9368ZM98.7405 29.8693C98.3636 28.372 96.9651 27.3621 95.4252 27.4755C94.2511 27.4522 93.1197 27.9161 92.2998 28.7569C91.4798 29.5976 91.0445 30.7403 91.0971 31.9135C91.0971 34.1126 92.4036 36.5854 95.6591 36.5854C96.977 36.6049 98.2188 35.9693 98.9736 34.8886C98.2676 35.2803 97.4794 35.5004 96.6727 35.5312C94.8601 35.5312 92.754 33.6235 92.754 30.8202C92.754 28.9317 94.073 28.1726 94.8992 28.1726C95.3842 28.117 95.8685 28.2813 96.2196 28.6205C96.5706 28.9596 96.7514 29.4381 96.7125 29.9246C96.565 30.188 92.813 31.7158 92.813 31.7158L94.3142 31.6376L98.7405 29.8693Z" fill="white"/>
<path d="M50.3008 10.2102V10.4758C50.3008 11.1151 50.0721 11.6561 49.6147 12.0987C49.1574 12.5364 48.5451 12.7553 47.7778 12.7553C46.9959 12.7553 46.3492 12.4971 45.8377 11.9807C45.3262 11.4643 45.0705 10.8323 45.0705 10.0848C45.0705 9.33724 45.3262 8.70527 45.8377 8.18888C46.3492 7.67249 46.9959 7.41429 47.7778 7.41429C48.2549 7.41429 48.6926 7.52986 49.091 7.76101C49.4893 7.99216 49.7967 8.29954 50.0131 8.68314L49.5557 8.94872C49.3934 8.63396 49.1524 8.38314 48.8328 8.19626C48.5131 8.00937 48.1615 7.91593 47.7778 7.91593C47.1336 7.91593 46.6074 8.12494 46.1992 8.54298C45.791 8.96101 45.5869 9.47494 45.5869 10.0848C45.5869 10.6946 45.791 11.2086 46.1992 11.6266C46.6074 12.0446 47.1336 12.2536 47.7778 12.2536C48.3582 12.2536 48.8229 12.1086 49.1721 11.8184C49.5213 11.5233 49.7205 11.1495 49.7697 10.6971H47.7188V10.2102H50.3008ZM52.8168 8.8897C53.3627 8.8897 53.8029 9.08396 54.1373 9.47249C54.4767 9.85609 54.6463 10.311 54.6463 10.8372C54.6463 10.8913 54.6414 10.9676 54.6316 11.0659H51.3931C51.4422 11.4397 51.5996 11.7372 51.8652 11.9586C52.1357 12.1749 52.4677 12.2831 52.8611 12.2831C53.1414 12.2831 53.3824 12.2266 53.584 12.1135C53.7906 11.9954 53.9455 11.843 54.0488 11.6561L54.4767 11.9069C54.3144 12.1676 54.0931 12.3741 53.8127 12.5266C53.5324 12.679 53.2127 12.7553 52.8537 12.7553C52.2734 12.7553 51.8013 12.5733 51.4373 12.2094C51.0734 11.8454 50.8914 11.3831 50.8914 10.8225C50.8914 10.2717 51.0709 9.81183 51.4299 9.44298C51.789 9.07413 52.2513 8.8897 52.8168 8.8897ZM52.8168 9.36183C52.4332 9.36183 52.1111 9.4774 51.8504 9.70855C51.5947 9.93478 51.4422 10.2299 51.3931 10.5938H54.1447C54.0955 10.2053 53.9455 9.90281 53.6947 9.68642C53.4439 9.47003 53.1513 9.36183 52.8168 9.36183ZM57.2677 9.45035H56.2054V11.6856C56.2054 11.8872 56.2447 12.0323 56.3234 12.1208C56.4021 12.2045 56.5201 12.2487 56.6775 12.2536C56.8349 12.2536 57.0316 12.2487 57.2677 12.2389V12.6667C56.7513 12.7454 56.3628 12.7086 56.1021 12.5561C55.8464 12.4036 55.7185 12.1135 55.7185 11.6856V9.45035H54.9439V8.97822H55.7185V8.09298L56.2054 7.94544V8.97822H57.2677V9.45035ZM60.4177 8.09298C60.3488 8.16183 60.2652 8.19626 60.1669 8.19626C60.0685 8.19626 59.9849 8.16183 59.916 8.09298C59.8472 8.02413 59.8128 7.94052 59.8128 7.84216C59.8128 7.7438 59.8472 7.66019 59.916 7.59134C59.9849 7.52249 60.0685 7.48806 60.1669 7.48806C60.2652 7.48806 60.3488 7.52249 60.4177 7.59134C60.4865 7.66019 60.521 7.7438 60.521 7.84216C60.521 7.94052 60.4865 8.02413 60.4177 8.09298ZM59.9234 12.6667V8.97822H60.4103V12.6667H59.9234ZM63.3984 9.45035H62.3361V11.6856C62.3361 11.8872 62.3755 12.0323 62.4541 12.1208C62.5328 12.2045 62.6509 12.2487 62.8082 12.2536C62.9656 12.2536 63.1623 12.2487 63.3984 12.2389V12.6667C62.882 12.7454 62.4935 12.7086 62.2328 12.5561C61.9771 12.4036 61.8492 12.1135 61.8492 11.6856V9.45035H61.0746V8.97822H61.8492V8.09298L62.3361 7.94544V8.97822H63.3984V9.45035ZM69.1451 12.202C68.7714 12.5708 68.314 12.7553 67.773 12.7553C67.232 12.7553 66.7722 12.5708 66.3935 12.202C66.0197 11.8282 65.8328 11.3684 65.8328 10.8225C65.8328 10.2766 66.0197 9.81921 66.3935 9.45035C66.7722 9.07658 67.232 8.8897 67.773 8.8897C68.314 8.8897 68.7714 9.07658 69.1451 9.45035C69.5238 9.81921 69.7132 10.2766 69.7132 10.8225C69.7132 11.3684 69.5238 11.8282 69.1451 12.202ZM66.7402 11.8626C67.0205 12.143 67.3648 12.2831 67.773 12.2831C68.1812 12.2831 68.5255 12.143 68.8058 11.8626C69.0861 11.5774 69.2263 11.2307 69.2263 10.8225C69.2263 10.4143 69.0861 10.07 68.8058 9.7897C68.5255 9.50445 68.1812 9.36183 67.773 9.36183C67.3648 9.36183 67.0205 9.50445 66.7402 9.7897C66.4599 10.07 66.3197 10.4143 66.3197 10.8225C66.3197 11.2307 66.4599 11.5774 66.7402 11.8626ZM72.2541 8.8897C72.7017 8.8897 73.0533 9.0274 73.3091 9.30281C73.5697 9.57331 73.7 9.9397 73.7 10.402V12.6667H73.2132V10.402C73.2132 10.0725 73.1246 9.81675 72.9476 9.63478C72.7755 9.45281 72.5296 9.36183 72.2099 9.36183C71.8558 9.36183 71.5681 9.47494 71.3468 9.70117C71.1255 9.92249 71.0148 10.2667 71.0148 10.734V12.6667H70.5279V8.97822H71.0148V9.55363C71.2902 9.11101 71.7033 8.8897 72.2541 8.8897Z" fill="white"/>
<path fill-rule="evenodd" clip-rule="evenodd" d="M36.4039 24.3373L31.2702 27.2018L27.1553 23.1068L31.2702 19.0118L36.4039 21.8763C36.9049 22.0795 37.2326 22.5662 37.2326 23.1068C37.2326 23.6474 36.9049 24.1341 36.4039 24.3373ZM26.4879 22.4407L12.9746 8.99377C13.3714 9.06432 13.7517 9.20736 14.0967 9.41574C15.7595 10.3512 24.3899 15.1698 30.4147 18.533L26.4879 22.4407ZM11.9118 36.9447C11.5732 36.5812 11.3695 36.1124 11.335 35.6168V10.5902C11.3703 10.0958 11.5739 9.6285 11.9118 9.26599L25.8183 23.1039L11.9118 36.9447ZM26.4879 23.773L30.4147 27.6828C24.3899 31.046 15.7595 35.8647 14.0967 36.8001C13.7517 37.0085 13.3714 37.1515 12.9746 37.2221L26.4879 23.773Z" fill="white"/>
</svg>
