<svg width="30" height="30" fill="none" xmlns="http://www.w3.org/2000/svg"><g clip-path="url(#a)" fill="#EDC5A2"><path d="M25.872 7.861c-1.07-3.455-3.848-6.256-7.25-7.31C14.997-.571 11.22.038 8.256 2.222A11.611 11.611 0 0 0 4.85 6.214a11.514 11.514 0 0 0-1.278 5.266c0 2.493.789 4.862 2.28 6.851L15.002 30l9.137-11.654.011-.015c2.233-2.977 2.86-6.793 1.723-10.47Zm-3.124 9.408L15 27.151 7.254 17.27a9.588 9.588 0 0 1-1.923-5.79A9.784 9.784 0 0 1 9.3 3.638c2.508-1.849 5.716-2.362 8.8-1.406 2.857.884 5.19 3.24 6.091 6.15.968 3.13.442 6.368-1.444 8.888Z"/><path d="M15.002 5.326a6.16 6.16 0 0 0-6.154 6.154A6.16 6.16 0 0 0 15 17.633a6.16 6.16 0 0 0 6.154-6.153 6.16 6.16 0 0 0-6.154-6.154Zm0 10.55a4.4 4.4 0 0 1-4.396-4.396 4.4 4.4 0 0 1 4.396-4.396 4.4 4.4 0 0 1 4.395 4.396 4.4 4.4 0 0 1-4.395 4.395Z"/></g><defs><clipPath id="a"><path fill="#fff" d="M0 0h30v30H0z"/></clipPath></defs></svg>